<?xml version="1.0" encoding="UTF-8"?>
<svg id="Layer_1" data-name="Layer 1" xmlns="http://www.w3.org/2000/svg" viewBox="0 0 344.64 314.37">
  <defs>
    <style>
      .cls-1 {
        fill: #edd515;
      }

      .cls-2 {
        fill: #00ab4e;
      }

      .cls-3 {
        fill: #050041;
      }

      .cls-4 {
        fill: none;
      }

      .cls-5 {
        fill: #ed1789;
      }

      .cls-6 {
        fill: #9e0d11;
      }

      .cls-7 {
        fill: #231f20;
      }
    </style>
  </defs>
  <g>
    <path class="cls-2" d="M61.21,84.12c9.63-6.76,18.67-11.3,28.22-14.74,5.93-2.13,12.43-1.48,18.33,1.4,12.71,6.2,25.54,12.22,38.12,18.65,6.12,3.13,9.75,8.05,9.72,14.71-.03,6.32,0,12.63,0,19.99-32.22-12-58.84-32.36-94.37-40.01Z"/>
    <path class="cls-5" d="M305.27,112.31c0,11.27,.48,20.17-.16,29-.45,6.16-3.77,11.65-10.1,14.77-13.01,6.42-26.06,12.79-39.33,18.76-9.26,4.17-30.3-.38-35.72-7.65-3.7-4.96,1.99-6.28,5.12-7.81,14.32-7,28.71-13.9,43.29-20.46,13.66-6.14,25.96-13.76,36.9-26.62Z"/>
    <path class="cls-6" d="M142.13,187.35c2.28,29.62-3.7,58.86,7.22,89.95-15.77-10.44-37.31-10.76-38.02-31.59-1.58-46.13-.82-47.42,30.8-58.36Z"/>
    <path class="cls-3" d="M40.42,200.87c-8.46-20.23-2.92-34.77,15.94-43.91,8.51-4.12,17.06-8.18,25.54-12.35,13.18-6.48,29.86-4.48,40.13,4.66,4.53,4.03,1.19,5.51-2.4,7.22-10.5,5.02-21.01,10.02-31.43,15.17-16.84,8.33-34.38,15.72-47.78,29.2Z"/>
    <path class="cls-1" d="M283.03,233.34c-12.44,5.56-21.73,9.67-30.97,13.86-4.68,2.12-9.33,2.14-13.89-.01-13.44-6.36-27.07-12.46-40.16-19.36-9.54-5.03-14.95-21.93-10.51-30.39,2.7-5.14,6.38-1.46,9.17-.15,19.38,9.11,38.58,18.54,57.97,27.63,7.81,3.66,16.3,5.95,28.38,8.42Z"/>
    <path class="cls-7" d="M194.05,42.71c28.22,6.19,37.3,16.24,37.18,39.7-.02,4.01-.52,8.09,.08,12.02,2.56,16.72-6.78,26.21-22.84,32.51-6.51,2.55-8.05,.75-8.05-4.6,0-14.37,.17-28.75-.08-43.12-.21-11.96-.34-23.98-6.29-36.52Z"/>
    <path class="cls-7" d="M204.19,272.01c-6.67,3.11-11.53,5.42-16.42,7.67-15.74,7.24-18.99,6.39-27.24-7.84-3.88-6.7-8.13-13.45-6.03-22.4,16.78,6.13,32.38,13.6,49.69,22.57Z"/>
    <path class="cls-6" d="M189.23,67.93c-17.24-7.7-33.45-13.46-47.81-22.26,.82-2.58,3-3.3,4.98-4.04,8.68-3.24,17.75-13.04,26.09-7.74,11.09,7.05,16.26,19.41,16.74,34.03Z"/>
    <path class="cls-1" d="M86.91,101.69c-16.73,8.09-32.13,15.54-47.4,22.93-1.06-1.31-1.77-1.79-1.76-2.25,.25-9.11-4.76-22.32,4.48-26.06,13.41-5.42,29.28-1.86,44.68,5.37Z"/>
    <path class="cls-2" d="M256.07,215.65c15.29-7.33,29.49-14.18,43.73-20.96,3.17-1.51,5.68-1.65,5.57,2.69-.13,5.31,.43,10.69-.26,15.93-.83,6.25-4.33,9.73-12.5,9.74-12.34,.01-23.97-1.61-36.54-7.39Z"/>
    <path class="cls-3" d="M272.52,79.96c9.87,2.06,17.05,7.6,25.23,11.2,3.95,1.74,4.32,5.25,2.54,8.67-4.8,9.25-12.05,16.7-21.25,22.6-3.97,2.55-6.67,2.55-6.59-3.02,.19-12.96,.06-25.93,.06-39.45Z"/>
    <path class="cls-5" d="M70.28,191.91v44.83c-4.03,1.07-6.44-1.46-9.26-2.79-23.71-11.17-24.5-16.06-5.19-32.86,3.92-3.41,7.5-7.39,14.45-9.18Z"/>
    <ellipse class="cls-2" cx="173.09" cy="123.07" rx="6.97" ry="7.08" transform="translate(-25.14 199.31) rotate(-56.45)"/>
    <ellipse class="cls-7" cx="172.81" cy="154.62" rx="6.96" ry="7.08" transform="translate(-52.67 208.78) rotate(-55.33)"/>
    <ellipse class="cls-5" cx="203.44" cy="144.88" rx="6.97" ry="7.08" transform="translate(-29.73 234.36) rotate(-56.45)"/>
    <ellipse class="cls-3" cx="142.49" cy="145.65" rx="6.97" ry="7.08" transform="translate(-57.64 183.9) rotate(-56.45)"/>
    <ellipse class="cls-6" cx="153.8" cy="180.68" rx="6.97" ry="7.08" transform="translate(-81.78 209) rotate(-56.45)"/>
    <ellipse class="cls-1" cx="191.92" cy="181.16" rx="6.97" ry="7.08" transform="translate(-65.13 240.99) rotate(-56.45)"/>
  </g>
  <rect class="cls-4" width="344.64" height="314.37"/>
</svg>